<svg width="18" height="19" viewBox="0 0 18 19" fill="none" xmlns="http://www.w3.org/2000/svg">
<path d="M7.07143 18.4999V16.0892C7.07143 15.6456 7.43143 15.2856 7.875 15.2856H10.125C10.5686 15.2856 10.935 15.6456 10.935 16.0956V18.4999H18V5.19274C18 4.99857 17.9618 4.8063 17.8874 4.62691C17.8131 4.44752 17.7042 4.28453 17.5669 4.14723C17.4296 4.00993 17.2666 3.90102 17.0873 3.82671C16.9079 3.75241 16.7156 3.71416 16.5214 3.71416H15.4286V2.08131C15.4286 1.20702 14.7214 0.499878 13.8471 0.499878H4.15286C3.27857 0.499878 2.57143 1.20702 2.57143 2.08131V3.71416H1.47857C1.2844 3.71416 1.09214 3.75241 0.912747 3.82671C0.733358 3.90102 0.570361 4.00993 0.433063 4.14723C0.295765 4.28453 0.186855 4.44752 0.112549 4.62691C0.0382443 4.8063 0 4.99857 0 5.19274V18.4999H7.07143ZM2.57143 14.6427H1.92857C1.575 14.6427 1.28571 14.3534 1.28571 13.9999V13.357C1.28571 13.0034 1.575 12.7142 1.92857 12.7142H2.57143V14.6427ZM2.57143 11.4284H1.92857C1.575 11.4284 1.28571 11.1392 1.28571 10.7856V10.1427C1.28571 9.78916 1.575 9.49988 1.92857 9.49988H2.57143V11.4284ZM2.57143 8.21416H1.92857C1.575 8.21416 1.28571 7.92488 1.28571 7.57131V6.92845C1.28571 6.57488 1.575 6.28559 1.92857 6.28559H2.57143V8.21416ZM15.4286 6.28559H16.0714C16.425 6.28559 16.7143 6.57488 16.7143 6.92845V7.57131C16.7143 7.93131 16.425 8.21416 16.0714 8.21416H15.4286V6.28559ZM15.4286 9.49988H16.0714C16.425 9.49988 16.7143 9.78916 16.7143 10.1427V10.7856C16.7143 11.1456 16.425 11.4284 16.0714 11.4284H15.4286V9.49988ZM15.4286 12.7142H16.0714C16.425 12.7142 16.7143 13.0034 16.7143 13.357V13.9999C16.7143 14.3599 16.425 14.6427 16.0714 14.6427H15.4286V12.7142ZM6.10714 10.7856C5.93357 10.7856 5.78571 10.6442 5.78571 10.4642V9.17202C5.78571 8.99845 5.92714 8.85059 6.10714 8.85059H8.04214C8.21571 8.85059 8.36357 8.99202 8.36357 9.17202V10.4642C8.36189 10.55 8.3266 10.6317 8.2653 10.6918C8.204 10.752 8.12156 10.7856 8.03571 10.7856H6.10714ZM12.2143 9.17845V10.4706C12.2143 10.6442 12.0729 10.7856 11.8993 10.792H9.96429C9.78429 10.792 9.64286 10.6442 9.64286 10.4706V9.17845C9.64286 8.99845 9.79071 8.85702 9.96429 8.85702H11.8929C12.0729 8.85702 12.2143 9.00488 12.2143 9.17845ZM8.35714 12.3927V13.6849C8.35714 13.8584 8.21571 13.9999 8.04214 14.0063H6.10714C5.92714 14.0063 5.78571 13.8584 5.78571 13.6849V12.3927C5.78571 12.2127 5.93357 12.0713 6.10714 12.0713H8.03571C8.21571 12.0713 8.35714 12.2192 8.35714 12.3927ZM12.2143 12.3927V13.6849C12.2143 13.8584 12.0729 13.9999 11.8993 14.0063H9.96429C9.78429 14.0063 9.64286 13.8584 9.64286 13.6849V12.3927C9.64286 12.2127 9.79071 12.0713 9.96429 12.0713H11.8929C12.0729 12.0713 12.2143 12.2192 12.2143 12.3927ZM8.35714 2.74988V4.04202C8.35714 4.21559 8.21571 4.35702 8.04214 4.36345H6.10714C5.92714 4.36345 5.78571 4.21559 5.78571 4.04202V2.74988C5.78571 2.56988 5.93357 2.42845 6.10714 2.42845H8.03571C8.21571 2.42845 8.35714 2.57631 8.35714 2.74988ZM12.2143 2.74988V4.04202C12.2143 4.21559 12.0729 4.35702 11.8993 4.36345H9.96429C9.78429 4.36345 9.64286 4.21559 9.64286 4.04202V2.74988C9.64286 2.56988 9.79071 2.42845 9.96429 2.42845H11.8929C12.0729 2.42845 12.2143 2.57631 12.2143 2.74988ZM8.35714 5.96416V7.25631C8.35714 7.42988 8.21571 7.57131 8.04214 7.57773H6.10714C5.92714 7.57773 5.78571 7.42988 5.78571 7.25631V5.96416C5.78571 5.78416 5.93357 5.64274 6.10714 5.64274H8.03571C8.21571 5.64274 8.35714 5.79059 8.35714 5.96416ZM12.2143 5.96416V7.25631C12.2143 7.42988 12.0729 7.57131 11.8993 7.57773H9.96429C9.78429 7.57773 9.64286 7.42988 9.64286 7.25631V5.96416C9.64286 5.78416 9.79071 5.64274 9.96429 5.64274H11.8929C12.0729 5.64274 12.2143 5.79059 12.2143 5.96416Z" fill="#A0AEC0"/>
</svg>
