<svg width="20" height="20" viewBox="0 0 20 20" fill="none" xmlns="http://www.w3.org/2000/svg">
<rect width="20" height="20" rx="2" fill="#5CB85C"/>
<path d="M14.8017 7.71782C14.9121 7.59935 14.9722 7.44264 14.9694 7.28072C14.9665 7.11881 14.9009 6.96432 14.7864 6.84981C14.6719 6.7353 14.5174 6.6697 14.3555 6.66685C14.1936 6.66399 14.0369 6.72409 13.9184 6.83449L8.94339 11.8095L6.88506 9.75116C6.76658 9.64076 6.60988 9.58066 6.44796 9.58351C6.28604 9.58637 6.13155 9.65196 6.01704 9.76647C5.90253 9.88098 5.83694 10.0355 5.83408 10.1974C5.83122 10.3593 5.89133 10.516 6.00173 10.6345L8.50173 13.1345C8.61892 13.2515 8.77777 13.3173 8.94339 13.3173C9.10902 13.3173 9.26787 13.2515 9.38506 13.1345L14.8017 7.71782Z" fill="white"/>
</svg>
