<svg width="10" height="10" viewBox="0 0 10 10" fill="none" xmlns="http://www.w3.org/2000/svg">
<path id="Vector" d="M6.65403 8.93885C6.67653 9.08883 6.62029 9.24881 6.49093 9.3538C6.4389 9.40014 6.37709 9.43691 6.30906 9.462C6.24102 9.48709 6.16808 9.5 6.09442 9.5C6.02076 9.5 5.94783 9.48709 5.87979 9.462C5.81175 9.43691 5.74995 9.40014 5.69791 9.3538L3.4426 7.34907C3.38126 7.29577 3.33462 7.23058 3.30633 7.15859C3.27803 7.08661 3.26885 7.00979 3.2795 6.93413V4.37447L0.585498 1.30989C0.494165 1.20567 0.452954 1.07355 0.47087 0.942405C0.488785 0.811259 0.564371 0.691747 0.68111 0.609985C0.78797 0.539995 0.906079 0.5 1.02981 0.5H8.90372C9.02745 0.5 9.14556 0.539995 9.25242 0.609985C9.36916 0.691747 9.44475 0.811259 9.46266 0.942405C9.48058 1.07355 9.43937 1.20567 9.34803 1.30989L6.65403 4.37447V8.93885ZM2.17715 1.49986L4.40434 4.02952V6.78915L5.52919 7.78901V4.02452L7.75638 1.49986H2.17715Z" fill="#D85431"/>
</svg>
