<svg width="52" height="52" viewBox="0 0 52 52" fill="none" xmlns="http://www.w3.org/2000/svg">
<path d="M47.1152 43.875H43.8652V21.125C43.8652 20.2276 43.1377 19.5 42.2402 19.5H33.3027H25.1777H17.8652V7.3125C17.8652 5.36027 17.1048 3.52402 15.723 2.14104C14.3411 0.760398 12.5048 0 10.5527 0C6.5206 0 3.24023 3.28037 3.24023 7.3125C3.24023 8.20991 3.96772 8.9375 4.86523 8.9375C5.76274 8.9375 6.49023 8.20991 6.49023 7.3125C6.49023 5.07244 8.31267 3.25 10.5527 3.25C11.6374 3.25 12.6578 3.6727 13.4249 4.43909C14.1925 5.20731 14.6152 6.22781 14.6152 7.3125V21.125V39.2057C11.8148 39.9291 9.74023 42.4768 9.74023 45.5C9.74023 49.0841 12.6561 52 16.2402 52C19.2634 52 21.8111 49.9254 22.5345 47.125H42.2402H47.1152C48.0127 47.125 48.7402 46.3974 48.7402 45.5C48.7402 44.6026 48.0127 43.875 47.1152 43.875ZM31.6777 22.75V26H26.8027V22.75H31.6777ZM16.2402 48.75C14.4481 48.75 12.9902 47.2921 12.9902 45.5C12.9902 43.7079 14.4481 42.25 16.2402 42.25C18.0323 42.25 19.4902 43.7079 19.4902 45.5C19.4902 47.2921 18.0323 48.75 16.2402 48.75ZM22.5345 43.875C21.9454 41.5942 20.146 39.7948 17.8652 39.2057V22.75H23.5527V27.625C23.5527 28.5224 24.2802 29.25 25.1777 29.25H33.3027C34.2002 29.25 34.9277 28.5224 34.9277 27.625V22.75H40.6152V43.875H22.5345Z" fill="#222222"/>
</svg>
