<svg width="54" height="52" viewBox="0 0 54 52" fill="none" xmlns="http://www.w3.org/2000/svg">
<g clip-path="url(#clip0_35_1053)">
<path d="M53.4805 28.4375C53.4805 24.2062 50.4216 20.7319 46.5597 20.4368C46.1016 18.9222 44.864 17.7338 43.3045 17.3216C42.2646 8.93425 35.3228 2.53906 26.9805 2.53906C18.6382 2.53906 11.6964 8.93425 10.6566 17.3216C9.09711 17.7338 7.85937 18.9221 7.40142 20.4368C7.26727 20.4471 7.13414 20.4612 7.00206 20.4791V10.5625C7.00206 9.72116 6.30685 9.03906 5.44932 9.03906C4.5918 9.03906 3.89659 9.72116 3.89659 10.5625V21.6984C1.84315 23.1288 0.480469 25.6143 0.480469 28.4375C0.480469 32.6688 3.53936 36.1432 7.40132 36.4382C7.85793 37.948 9.08914 39.1334 10.6417 39.5492C11.3032 43.3268 14.6633 46.2109 18.6993 46.2109H19.0583C19.708 48.098 21.5282 49.4609 23.668 49.4609H30.293C32.9757 49.4609 35.1582 47.3196 35.1582 44.6875C35.1582 42.0554 32.9757 39.9141 30.293 39.9141H23.668C21.5282 39.9141 19.708 41.277 19.0583 43.1641H18.6993C16.3512 43.1641 14.3713 41.5903 13.7961 39.4615C15.623 38.8432 16.9395 37.1404 16.9395 35.1406V21.7344C16.9395 19.7276 15.6139 18.02 13.7771 17.4072C14.747 10.6781 20.3137 5.58594 26.9805 5.58594C33.6473 5.58594 39.214 10.6781 40.1839 17.4072C38.3471 18.02 37.0215 19.7276 37.0215 21.7344V35.1406C37.0215 37.6607 39.1112 39.7109 41.6797 39.7109H42.0938C44.2029 39.7109 45.9881 38.3281 46.5597 36.4382C50.4216 36.1432 53.4805 32.6688 53.4805 28.4375ZM23.668 42.9609H30.293C31.2634 42.9609 32.0528 43.7355 32.0528 44.6875C32.0528 45.6395 31.2634 46.4141 30.293 46.4141H23.668C22.6976 46.4141 21.9082 45.6395 21.9082 44.6875C21.9082 43.7355 22.6976 42.9609 23.668 42.9609ZM3.58594 28.4375C3.58594 26.0216 5.18267 23.9415 7.20899 23.5334V33.3415C5.18267 32.9335 3.58594 30.8534 3.58594 28.4375ZM13.834 35.1406C13.834 35.9806 13.1375 36.6641 12.2813 36.6641H11.8672C11.011 36.6641 10.3144 35.9806 10.3144 35.1406C10.3144 30.252 10.3144 26.2535 10.3144 21.7344C10.3144 20.8944 11.011 20.2109 11.8672 20.2109H12.2813C13.1375 20.2109 13.834 20.8944 13.834 21.7344V35.1406ZM43.6465 35.1406C43.6465 35.9806 42.95 36.6641 42.0938 36.6641H41.6797C40.8235 36.6641 40.127 35.9806 40.127 35.1406V21.7344C40.127 20.8944 40.8235 20.2109 41.6797 20.2109H42.0938C42.95 20.2109 43.6465 20.8944 43.6465 21.7344V35.1406ZM46.752 33.3416V23.5335C48.7783 23.9416 50.375 26.0217 50.375 28.4376C50.375 30.8535 48.7783 32.9335 46.752 33.3416Z" fill="#222222"/>
</g>
<defs>
<clipPath id="clip0_35_1053">
<rect width="53" height="52" fill="white" transform="translate(0.480469)"/>
</clipPath>
</defs>
</svg>
