<svg width="53" height="52" viewBox="0 0 53 52" fill="none" xmlns="http://www.w3.org/2000/svg">
<g clip-path="url(#clip0_35_1062)">
<mask id="mask0_35_1062" style="mask-type:luminance" maskUnits="userSpaceOnUse" x="0" y="0" width="53" height="52">
<path d="M52.96 0H0.959961V52H52.96V0Z" fill="white"/>
</mask>
<g mask="url(#mask0_35_1062)">
<path d="M49.0484 14.1089L49.0469 14.0684C49.0242 13.569 49.0092 13.0405 49 12.4526C48.9576 9.58543 46.6784 7.21379 43.8108 7.05352C37.8322 6.71987 33.2071 4.77035 29.2553 0.918523L29.2216 0.886388C27.9326 -0.295463 25.9883 -0.295463 24.6989 0.886388L24.6652 0.918523C20.7134 4.77035 16.0883 6.71987 10.1097 7.05391C7.24253 7.21379 4.96293 9.58543 4.92048 12.453C4.91176 13.037 4.89628 13.5654 4.87367 14.0684L4.87129 14.1625C4.75505 20.259 4.61064 27.8464 7.1489 34.7332C8.54459 38.5203 10.6583 41.8124 13.431 44.5185C16.589 47.6002 20.7253 50.0469 25.7248 51.7901C25.8875 51.8468 26.0565 51.8928 26.2287 51.9274C26.4715 51.9758 26.7159 52 26.9602 52C27.2046 52 27.4494 51.9758 27.6918 51.9274C27.864 51.8928 28.0342 51.8464 28.1976 51.7893C33.1912 50.0429 37.3232 47.5951 40.4783 44.5137C43.2499 41.8068 45.3636 38.514 46.7605 34.726C49.3083 27.8186 49.1643 20.2169 49.0484 14.1089ZM43.8977 33.6704C41.2206 40.9289 35.7557 45.9138 27.1907 48.909C27.1602 48.9194 27.1277 48.9285 27.0939 48.9352C27.0055 48.9527 26.9154 48.9527 26.8258 48.9348C26.7924 48.9281 26.7599 48.9194 26.7297 48.909C18.1557 45.9193 12.6872 40.9372 10.0121 33.6783C7.67258 27.3303 7.80509 20.3653 7.92212 14.2208L7.92292 14.1867C7.94672 13.6586 7.96259 13.1056 7.97132 12.4978C7.99036 11.2247 9.0044 10.1714 10.2799 10.1004C13.6631 9.91154 16.6354 9.25773 19.3665 8.10167C22.094 6.94719 24.5164 5.31982 26.7714 3.12671C26.8861 3.02991 27.0348 3.02951 27.1491 3.12671C29.4045 5.31982 31.8269 6.94719 34.554 8.10167C37.2851 9.25773 40.2574 9.91154 43.641 10.1004C44.9165 10.1714 45.9306 11.2247 45.9492 12.4982C45.9583 13.1092 45.9742 13.6622 45.998 14.1867C46.1146 20.3383 46.244 27.3088 43.8977 33.6704Z" fill="#222222"/>
<path d="M26.9597 13.042C19.8138 13.042 14.0005 18.8557 14.0005 26.0011C14.0005 33.147 19.8138 38.9607 26.9597 38.9607C34.1051 38.9607 39.9188 33.147 39.9188 26.0011C39.9188 18.8557 34.1051 13.042 26.9597 13.042ZM26.9597 35.909C21.4963 35.909 17.0518 31.4645 17.0518 26.0011C17.0518 20.5378 21.4963 16.0932 26.9597 16.0932C32.4226 16.0932 36.8672 20.5378 36.8672 26.0011C36.8672 31.4645 32.4226 35.909 26.9597 35.909Z" fill="#222222"/>
<path d="M30.6841 21.9775L24.665 27.9966L23.0312 26.3629C22.4354 25.767 21.4693 25.767 20.8734 26.3629C20.2779 26.9588 20.2779 27.9248 20.8734 28.5203L23.5863 31.2332C23.8842 31.5311 24.2746 31.6799 24.665 31.6799C25.0553 31.6799 25.4457 31.5311 25.7437 31.2332L32.8419 24.1349C33.4374 23.539 33.4374 22.573 32.8419 21.9775C32.2461 21.3812 31.28 21.3812 30.6841 21.9775Z" fill="#222222"/>
</g>
</g>
<defs>
<clipPath id="clip0_35_1062">
<rect width="52" height="52" fill="white" transform="translate(0.959961)"/>
</clipPath>
</defs>
</svg>
