<svg width="13" height="12" viewBox="0 0 13 12" fill="none" xmlns="http://www.w3.org/2000/svg">
<path id="Vector" d="M0.964111 9.64032V11.6667C0.964111 11.8534 1.11076 12 1.2974 12H3.32379C3.41045 12 3.4971 11.9667 3.55709 11.9L10.8361 4.62767L8.33644 2.12801L1.0641 9.40035C0.99744 9.46701 0.964111 9.547 0.964111 9.64032ZM12.7692 2.6946C12.831 2.63293 12.88 2.55968 12.9134 2.47904C12.9469 2.3984 12.9641 2.31196 12.9641 2.22466C12.9641 2.13736 12.9469 2.05092 12.9134 1.97028C12.88 1.88964 12.831 1.81639 12.7692 1.75472L11.2094 0.194936C11.1477 0.133142 11.0745 0.0841172 10.9938 0.0506674C10.9132 0.0172176 10.8268 0 10.7395 0C10.6522 0 10.5657 0.0172176 10.4851 0.0506674C10.4044 0.0841172 10.3312 0.133142 10.2695 0.194936L9.04968 1.41477L11.5493 3.91443L12.7692 2.6946Z" fill="black" fill-opacity="0.6"/>
</svg>
