<svg width="12" height="12" viewBox="0 0 12 12" fill="none" xmlns="http://www.w3.org/2000/svg">
<g id="IONIcon/P/person/default">
<path id="Vector" d="M7.79615 1.51335C7.34006 1.02093 6.70302 0.749756 5.9999 0.749756C5.29302 0.749756 4.65388 1.01929 4.1999 1.50866C3.74099 2.00343 3.5174 2.67585 3.5699 3.40194C3.67396 4.83444 4.76404 5.99975 5.9999 5.99975C7.23576 5.99975 8.32396 4.83468 8.42966 3.40241C8.48287 2.68288 8.25787 2.01186 7.79615 1.51335Z" fill="white"/>
<path id="Vector_2" d="M10.125 11.2493H1.87501C1.76703 11.2507 1.66009 11.228 1.56197 11.1829C1.46386 11.1377 1.37704 11.0713 1.30782 10.9884C1.15548 10.8063 1.09407 10.5576 1.13954 10.3061C1.33736 9.2088 1.9547 8.287 2.92501 7.63989C3.78704 7.06544 4.87899 6.74927 6.00001 6.74927C7.12102 6.74927 8.21298 7.06567 9.07501 7.63989C10.0453 8.28677 10.6627 9.20856 10.8605 10.3059C10.9059 10.5574 10.8445 10.8061 10.6922 10.9882C10.623 11.0711 10.5362 11.1376 10.4381 11.1828C10.34 11.2279 10.233 11.2506 10.125 11.2493Z" fill="white"/>
</g>
</svg>
